<svg xmlns="http://www.w3.org/2000/svg" width="28" height="28" viewBox="0 0 28 28" fill="none">
    <path fill-rule="evenodd" clip-rule="evenodd" d="M23.2703 1.9565C23.1917 1.72603 23.043 1.52591 22.845 1.38421C22.647 1.24251 22.4096 1.16632 22.1661 1.16632C21.9226 1.16632 21.6852 1.24251 21.4871 1.38421C21.2891 1.52591 21.1404 1.72603 21.0618 1.9565L20.9113 2.3975C20.7385 2.90367 20.452 3.36351 20.0739 3.7417C19.6957 4.1199 19.2358 4.40638 18.7297 4.57917L18.2898 4.72967C18.0598 4.8085 17.8601 4.95726 17.7187 5.15514C17.5773 5.35303 17.5013 5.59014 17.5013 5.83333C17.5013 6.07653 17.5773 6.31364 17.7187 6.51152C17.8601 6.70941 18.0598 6.85816 18.2898 6.937L18.7308 7.08867C19.2369 7.26133 19.6966 7.54764 20.0748 7.92562C20.453 8.30361 20.7396 8.76321 20.9125 9.26917L21.0618 9.71017C21.1404 9.94064 21.2891 10.1408 21.4871 10.2825C21.6852 10.4242 21.9226 10.5003 22.1661 10.5003C22.4096 10.5003 22.647 10.4242 22.845 10.2825C23.043 10.1408 23.1917 9.94064 23.2703 9.71017L23.422 9.26917C23.5947 8.76312 23.881 8.30336 24.2589 7.92517C24.6369 7.54699 25.0965 7.26043 25.6025 7.0875L26.0435 6.937C26.2735 6.85816 26.4732 6.70941 26.6146 6.51152C26.756 6.31364 26.832 6.07653 26.832 5.83333C26.832 5.59014 26.756 5.35303 26.6146 5.15514C26.4732 4.95726 26.2735 4.8085 26.0435 4.72967L25.6025 4.578C25.0964 4.40534 24.6367 4.11903 24.2585 3.74104C23.8803 3.36306 23.5938 2.90345 23.4208 2.3975L23.2703 1.9565ZM21.2287 5.83333C21.5771 5.55722 21.8898 5.24455 22.1667 4.89533C22.4428 5.24378 22.7554 5.55644 23.1047 5.83333C22.7573 6.10932 22.4426 6.42402 22.1667 6.77133C21.8907 6.42402 21.576 6.10932 21.2287 5.83333ZM14 2.33333C12.4529 2.33333 10.9692 2.94791 9.8752 4.04188C8.78124 5.13584 8.16665 6.61957 8.16665 8.16667V14C8.16665 15.5471 8.78124 17.0308 9.8752 18.1248C10.9692 19.2188 12.4529 19.8333 14 19.8333C15.5471 19.8333 17.0308 19.2188 18.1248 18.1248C19.2187 17.0308 19.8333 15.5471 19.8333 14V11.6667C19.8333 11.3572 19.7104 11.0605 19.4916 10.8417C19.2728 10.6229 18.9761 10.5 18.6667 10.5C18.3572 10.5 18.0605 10.6229 17.8417 10.8417C17.6229 11.0605 17.5 11.3572 17.5 11.6667V14C17.5 14.9283 17.1312 15.8185 16.4749 16.4749C15.8185 17.1313 14.9282 17.5 14 17.5C13.0717 17.5 12.1815 17.1313 11.5251 16.4749C10.8687 15.8185 10.5 14.9283 10.5 14V8.16667C10.4998 7.63238 10.6219 7.10513 10.8569 6.62534C11.092 6.14554 11.4338 5.72592 11.8561 5.39865C12.2784 5.07138 12.7701 4.84514 13.2933 4.73727C13.8166 4.6294 14.3577 4.64276 14.875 4.77633C15.0245 4.81845 15.181 4.83028 15.3351 4.81113C15.4893 4.79198 15.6381 4.74223 15.7728 4.66481C15.9074 4.58738 16.0253 4.48383 16.1194 4.36025C16.2136 4.23666 16.2821 4.09552 16.3209 3.9451C16.3597 3.79469 16.3682 3.63803 16.3457 3.48431C16.3231 3.3306 16.2702 3.18293 16.1898 3.04997C16.1095 2.91701 16.0034 2.80144 15.8778 2.71003C15.7522 2.61862 15.6095 2.55322 15.4583 2.51767C14.9819 2.39498 14.4919 2.33304 14 2.33333ZM15.1667 23.261C17.1944 23.005 19.0822 22.0907 20.5403 20.6585C21.9985 19.2263 22.9465 17.3552 23.2388 15.3323C23.2828 15.026 23.2032 14.7148 23.0177 14.4671C22.8321 14.2194 22.5558 14.0556 22.2495 14.0117C21.9432 13.9677 21.6319 14.0473 21.3843 14.2328C21.1366 14.4184 20.9728 14.6947 20.9288 15.001C20.6858 16.6652 19.8519 18.1863 18.5797 19.2862C17.3074 20.3861 15.6818 20.9914 14 20.9914C12.3182 20.9914 10.6925 20.3861 9.4203 19.2862C8.14806 18.1863 7.31419 16.6652 7.07115 15.001C7.02722 14.6947 6.86339 14.4184 6.61572 14.2328C6.36805 14.0473 6.05681 13.9677 5.75049 14.0117C5.44416 14.0556 5.16784 14.2194 4.9823 14.4671C4.79677 14.7148 4.71722 15.026 4.76115 15.3323C5.05352 17.3552 6.0015 19.2263 7.45964 20.6585C8.91778 22.0907 10.8055 23.005 12.8333 23.261V24.5C12.8333 24.8094 12.9562 25.1062 13.175 25.325C13.3938 25.5437 13.6906 25.6667 14 25.6667C14.3094 25.6667 14.6062 25.5437 14.8249 25.325C15.0437 25.1062 15.1667 24.8094 15.1667 24.5V23.261Z" fill="#3AFC95"/>
</svg>