<svg xmlns="http://www.w3.org/2000/svg" width="141" height="175" viewBox="0 0 141 175" fill="none">
    <path d="M0 135.988V13.9987C1.9924 4.3996 9.79596 0.666606 13.4487 0L52.7986 0.999909C66.3469 1.79984 67.7416 14.332 66.7454 20.4981L32.8746 136.488C32.2104 140.821 27.9932 149.386 16.4373 148.986C4.88138 148.587 0.664133 140.154 0 135.988Z" fill="#3AFC95"/>
    <path d="M46.0131 145.675L72.785 51.7754C76.815 44.9349 85.1674 44.2093 88.8398 44.7015L126.607 56.3015C139.51 60.6461 138.106 70.6765 135.791 75.1487L77.6387 155.108C76.0467 158.261 70.0957 163.694 59.028 160.205C47.9603 156.717 45.7399 149.065 46.0131 145.675Z" fill="#3AFC95"/>
</svg>